<svg xmlns="http://www.w3.org/2000/svg" width="40" height="40" viewBox="0 0 40 40">
<defs>
    <style>
      .cls-1 {
        fill: #33180c;
      }

      .cls-2 {
        fill: #44270e;
      }

      .cls-3 {
        fill: #754a21;
      }

      .cls-4 {
        fill: #754921;
      }

      .cls-5 {
        fill: #7d4e23;
      }

      .cls-6 {
        fill: #7c4e23;
      }

      .cls-7 {
        fill: #40250d;
      }

      .cls-8 {
        fill: #42260e;
      }

      .cls-9 {
        fill: #643b16;
      }

      .cls-10 {
        fill: #734921;
      }

      .cls-11 {
        fill: #93663b;
      }

      .cls-12 {
        fill: #b28256;
      }

      .cls-13 {
        fill: #ab7d53;
      }

      .cls-14 {
        fill: #ad7f54;
      }

      .cls-15 {
        fill: #653c16;
      }

      .cls-16 {
        fill: #6f4218;
      }

      .cls-17 {
        fill: #7a4c22;
      }

      .cls-18 {
        fill: #96673c;
      }

      .cls-19 {
        fill: #b08055;
      }

      .cls-20 {
        fill: #09accb;
      }

      .cls-21 {
        fill: #ffcb76;
      }

      .cls-22 {
        fill: #fdc974;
      }

      .cls-23 {
        fill: #6b3f17;
      }

      .cls-24 {
        fill: #8f643b;
      }

      .cls-25 {
        fill: #fac674;
      }

      .cls-26 {
        fill: #784b22;
      }

      .cls-27 {
        fill: #794c22;
      }

      .cls-28 {
        fill: #372615;
      }

      .cls-29 {
        fill: #0e0e0d;
      }

      .cls-30 {
        fill: #0c0c0b;
      }

      .cls-31 {
        fill: #7f4f23;
      }

      .cls-32 {
        fill: #7f4f24;
      }

      .cls-33 {
        fill: #7f5025;
      }

      .cls-34 {
        fill: #91653b;
      }

      .cls-35 {
        fill: #fff;
      }

      .cls-36 {
        fill: #fbc874;
      }

      .cls-37 {
        fill: #fec975;
      }

      .cls-38 {
        fill: #93653b;
      }

      .cls-39 {
        fill: #b08155;
      }

      .cls-40 {
        fill: #0a0a09;
      }

      .cls-41 {
        fill: #07d6fe;
      }

      .cls-42 {
        fill: #08accb;
      }

      .cls-43 {
        fill: #f9c573;
      }

      .cls-44 {
        fill: #fcc875;
      }

      .cls-45 {
        fill: #ffcb75;
      }

      .cls-46 {
        fill: #744921;
      }

      .cls-47 {
        fill: #95673d;
      }

      .cls-48 {
        fill: #b18156;
      }

      .cls-49 {
        fill: #fbc774;
      }

      .cls-50 {
        fill: #fac773;
      }

      .cls-51 {
        fill: #fac673;
      }
    </style>
  </defs>
  <rect class="cls-1" width="5" height="5"/>
  <rect class="cls-1" y="5" width="5" height="5"/>
  <rect class="cls-2" y="10" width="5" height="5"/>
  <rect class="cls-2" y="15" width="5" height="5"/>
  <rect class="cls-3" y="20" width="5" height="5"/>
  <rect class="cls-4" y="25" width="5" height="5"/>
  <rect class="cls-5" y="30" width="5" height="5"/>
  <rect class="cls-6" y="35" width="5" height="5"/>
  <rect class="cls-7" x="5" width="5" height="5"/>
  <rect class="cls-8" x="5" y="5" width="5" height="5"/>
  <rect class="cls-9" x="5" y="10" width="5" height="5"/>
  <rect class="cls-10" x="5" y="15" width="5" height="5"/>
  <rect class="cls-11" x="5" y="20" width="5" height="5"/>
  <rect class="cls-12" x="5" y="25" width="5" height="5"/>
  <rect class="cls-13" x="5" y="30" width="5" height="5"/>
  <rect class="cls-14" x="5" y="35" width="5" height="5"/>
  <rect class="cls-15" x="10" width="5" height="5"/>
  <rect class="cls-16" x="10" y="5" width="5" height="5"/>
  <rect class="cls-17" x="10" y="10" width="5" height="5"/>
  <rect class="cls-18" x="10" y="15" width="5" height="5"/>
  <rect class="cls-19" x="10" y="20" width="5" height="5"/>
  <rect class="cls-20" x="10" y="25" width="5" height="5"/>
  <rect class="cls-21" x="10" y="30" width="5" height="5"/>
  <rect class="cls-22" x="10" y="35" width="5" height="5"/>
  <rect class="cls-23" x="15" width="5" height="5"/>
  <rect class="cls-23" x="15" y="5" width="5" height="5"/>
  <rect class="cls-17" x="15" y="10" width="5" height="5"/>
  <rect class="cls-24" x="15" y="15" width="5" height="5"/>
  <rect class="cls-25" x="15" y="20" width="5" height="5"/>
  <rect class="cls-26" x="25" width="5" height="5"/>
  <rect class="cls-26" x="30" width="5" height="5"/>
  <rect class="cls-26" x="35" width="5" height="5"/>
  <rect class="cls-27" x="35" y="5" width="5" height="5"/>
  <rect class="cls-6" x="35" y="10" width="5" height="5"/>
  <rect class="cls-28" x="35" y="15" width="5" height="5"/>
  <rect class="cls-29" x="35" y="20" width="5" height="5"/>
  <rect class="cls-30" x="35" y="25" width="5" height="5"/>
  <rect class="cls-31" x="35" y="30" width="5" height="5"/>
  <rect class="cls-32" x="35" y="35" width="5" height="5"/>
  <rect class="cls-33" x="30" y="5" width="5" height="5"/>
  <rect class="cls-34" x="30" y="10" width="5" height="5"/>
  <rect class="cls-30" x="30" y="15" width="5" height="5"/>
  <rect class="cls-35" x="30" y="20" width="5" height="5"/>
  <rect class="cls-35" x="30" y="25" width="5" height="5"/>
  <rect class="cls-36" x="30" y="30" width="5" height="5"/>
  <rect class="cls-37" x="30" y="35" width="5" height="5"/>
  <rect class="cls-38" x="25" y="5" width="5" height="5"/>
  <rect class="cls-39" x="25" y="10" width="5" height="5"/>
  <rect class="cls-40" x="25" y="15" width="5" height="5"/>
  <rect class="cls-41" x="25" y="20" width="5" height="5"/>
  <rect class="cls-42" x="25" y="25" width="5" height="5"/>
  <rect class="cls-21" x="25" y="30" width="5" height="5"/>
  <rect class="cls-43" x="25" y="35" width="5" height="5"/>
  <rect class="cls-44" x="15" y="25" width="5" height="5"/>
  <rect class="cls-25" x="15" y="30" width="5" height="5"/>
  <rect class="cls-45" x="15" y="35" width="5" height="5"/>
  <rect class="cls-46" x="20" width="5" height="5"/>
  <rect class="cls-47" x="20" y="5" width="5" height="5"/>
  <rect class="cls-48" x="20" y="10" width="5" height="5"/>
  <rect class="cls-49" x="20" y="15" width="5" height="5"/>
  <rect class="cls-50" x="20" y="20" width="5" height="5"/>
  <rect class="cls-21" x="20" y="25" width="5" height="5"/>
  <rect class="cls-51" x="20" y="30" width="5" height="5"/>
  <rect class="cls-21" x="20" y="35" width="5" height="5"/>
</svg>
